<?xml version="1.0" standalone="no"?>
<!DOCTYPE svg PUBLIC "-//W3C//DTD SVG 20010904//EN"
 "http://www.w3.org/TR/2001/REC-SVG-20010904/DTD/svg10.dtd">
<svg version="1.0" xmlns="http://www.w3.org/2000/svg"
 width="140pt" height="100pt" 
 preserveAspectRatio="xMidYMid meet">

<g transform="translate(-10,125) scale(0.1,-0.1)"
fill="#FFC000" stroke="none">
<path d="M150 1013 c0 -3 18 -30 40 -59 l40 -53 0 -326 0 -325 65 0 65 0 2
252 3 252 119 -148 c97 -122 120 -146 131 -135 6 8 58 71 113 141 56 70 106
129 112 133 7 4 10 -77 10 -244 l0 -251 65 0 65 0 0 327 0 326 40 53 c22 29
40 56 40 59 0 3 -34 5 -75 5 l-75 0 -154 -184 -154 -185 -151 185 -152 184
-74 0 c-41 0 -75 -3 -75 -7z"/>
</g>
<g transform="translate(-10,127) scale(0.1,-0.11)"
fill="#FFC000" stroke="none">
<path d="M1176 920 c-47 -42 -90 -112 -116 -190 -19 -54 -21 -80 -17 -155 13
-249 160 -385 362 -334 103 26 152 121 165 319 11 168 24 200 88 200 129 0
164 -206 61 -357 -16 -23 -29 -46 -29 -51 0 -5 21 -26 46 -47 l45 -37 29 27
c39 37 85 128 100 196 7 32 11 91 8 136 -8 133 -80 239 -191 280 -75 27 -164
9 -218 -46 -49 -48 -69 -118 -78 -274 -9 -146 -26 -192 -76 -206 -76 -21 -133
23 -160 124 -33 119 -6 225 76 311 l40 40 -42 47 c-22 26 -45 47 -50 47 -4 0
-24 -14 -43 -30z"/>
</g>
</svg>
